<svg width="512" height="512" viewBox="0 0 512 512" fill="none" xmlns="http://www.w3.org/2000/svg">
<path d="M255.98 244.082L141.45 178.14L256.045 111.871L370.576 178.009L255.98 244.082ZM395.918 169.169L261.088 91.3751C257.944 89.5416 254.081 89.5416 250.938 91.3751L116.108 169.366C112.965 171.199 111.065 174.539 111.065 178.14C111.065 181.742 113.03 185.082 116.173 186.915L251.003 264.578C252.575 265.495 254.343 265.953 256.045 265.953C257.813 265.953 259.581 265.495 261.088 264.578L395.918 186.719C399.061 184.885 400.96 181.546 400.96 177.944C400.96 174.342 399.061 171.003 395.918 169.169Z" fill="#00A049"/>
<path d="M390.81 214.811C385.178 214.811 380.66 219.329 380.66 224.961V328.097L255.98 400.129L131.3 328.293V225.223C131.3 219.657 126.781 215.073 121.15 215.073C115.518 215.073 111 219.591 111 225.223V334.187C111 337.789 112.964 341.194 116.108 342.962L250.938 420.625C252.509 421.542 254.277 422 255.98 422C257.748 422 259.45 421.542 261.022 420.625L395.918 342.765C399.061 340.932 400.96 337.592 400.96 333.991V224.961C400.96 219.395 396.441 214.811 390.81 214.811Z" fill="#00A049"/>
</svg>
